REM DIRINDEX 1\2,1\3,1\4,1\5
REM DIRNAME cjc093,folder01,folder02,folder03,folder04
TITLE ""
FILE "Round-08-186-187.mp3" MP3
  TRACK 01 AUDIO
    TITLE "0:"
    INDEX 01 00:00:00
  TRACK 02 AUDIO
    TITLE "2:cjc093_2067"
    INDEX 01 00:00:01
  TRACK 03 AUDIO
    TITLE "0:"
    INDEX 01 00:01:22
  TRACK 04 AUDIO
    TITLE "3:cjc093_2068"
    INDEX 01 00:01:46
  TRACK 05 AUDIO
    TITLE "0:"
    INDEX 01 00:02:67
  TRACK 06 AUDIO
    TITLE "4:cjc093_2069"
    INDEX 01 00:03:21
  TRACK 07 AUDIO
    TITLE "0:"
    INDEX 01 00:07:03
  TRACK 08 AUDIO
    TITLE "2:cjc093_2070"
    INDEX 01 00:08:19
  TRACK 09 AUDIO
    TITLE "0:"
    INDEX 01 00:09:28
  TRACK 10 AUDIO
    TITLE "3:cjc093_2071"
    INDEX 01 00:09:51
  TRACK 11 AUDIO
    TITLE "0:"
    INDEX 01 00:10:63
  TRACK 12 AUDIO
    TITLE "4:cjc093_2072"
    INDEX 01 00:11:19
  TRACK 13 AUDIO
    TITLE "0:"
    INDEX 01 00:13:71
  TRACK 14 AUDIO
    TITLE "2:cjc093_2073"
    INDEX 01 00:15:09
  TRACK 15 AUDIO
    TITLE "0:"
    INDEX 01 00:16:16
  TRACK 16 AUDIO
    TITLE "3:cjc093_2074"
    INDEX 01 00:16:53
  TRACK 17 AUDIO
    TITLE "0:"
    INDEX 01 00:19:07
  TRACK 18 AUDIO
    TITLE "4:cjc093_2075"
    INDEX 01 00:19:42
  TRACK 19 AUDIO
    TITLE "0:"
    INDEX 01 00:22:30
  TRACK 20 AUDIO
    TITLE "3:cjc093_2076"
    INDEX 01 00:23:44
  TRACK 21 AUDIO
    TITLE "0:"
    INDEX 01 00:24:57
  TRACK 22 AUDIO
    TITLE "4:cjc093_2077"
    INDEX 01 00:25:27
  TRACK 23 AUDIO
    TITLE "0:"
    INDEX 01 00:28:37
  TRACK 24 AUDIO
    TITLE "2:cjc093_2078"
    INDEX 01 00:29:50
  TRACK 25 AUDIO
    TITLE "0:"
    INDEX 01 00:30:57
  TRACK 26 AUDIO
    TITLE "3:cjc093_2079"
    INDEX 01 00:31:18
  TRACK 27 AUDIO
    TITLE "0:"
    INDEX 01 00:33:62
  TRACK 28 AUDIO
    TITLE "4:cjc093_2080"
    INDEX 01 00:34:24
  TRACK 29 AUDIO
    TITLE "0:"
    INDEX 01 00:37:34
  TRACK 30 AUDIO
    TITLE "3:cjc093_2081"
    INDEX 01 00:38:43
  TRACK 31 AUDIO
    TITLE "0:"
    INDEX 01 00:39:64
  TRACK 32 AUDIO
    TITLE "4:cjc093_2082"
    INDEX 01 00:40:28
  TRACK 33 AUDIO
    TITLE "0:"
    INDEX 01 00:43:23
  TRACK 34 AUDIO
    TITLE "2:cjc093_2083"
    INDEX 01 00:44:40
  TRACK 35 AUDIO
    TITLE "0:"
    INDEX 01 00:45:49
  TRACK 36 AUDIO
    TITLE "3:cjc093_2084"
    INDEX 01 00:46:06
  TRACK 37 AUDIO
    TITLE "0:"
    INDEX 01 00:47:28
  TRACK 38 AUDIO
    TITLE "4:cjc093_2085"
    INDEX 01 00:47:48
  TRACK 39 AUDIO
    TITLE "0:"
    INDEX 01 00:50:27
  TRACK 40 AUDIO
    TITLE "2:cjc093_2086"
    INDEX 01 00:51:54
  TRACK 41 AUDIO
    TITLE "0:"
    INDEX 01 00:52:61
  TRACK 42 AUDIO
    TITLE "3:cjc093_2087"
    INDEX 01 00:53:23
  TRACK 43 AUDIO
    TITLE "0:"
    INDEX 01 00:54:32
  TRACK 44 AUDIO
    TITLE "4:cjc093_2088"
    INDEX 01 00:55:18
  TRACK 45 AUDIO
    TITLE "0:"
    INDEX 01 00:57:48
  TRACK 46 AUDIO
    TITLE "2:cjc093_2089"
    INDEX 01 00:58:62
  TRACK 47 AUDIO
    TITLE "0:"
    INDEX 01 01:00:08
  TRACK 48 AUDIO
    TITLE "3:cjc093_2090"
    INDEX 01 01:00:49
  TRACK 49 AUDIO
    TITLE "0:"
    INDEX 01 01:02:08
  TRACK 50 AUDIO
    TITLE "4:cjc093_2091"
    INDEX 01 01:02:18
  TRACK 51 AUDIO
    TITLE "0:"
    INDEX 01 01:04:37
  TRACK 52 AUDIO
    TITLE "2:cjc093_2092"
    INDEX 01 01:05:52
  TRACK 53 AUDIO
    TITLE "0:"
    INDEX 01 01:06:49
  TRACK 54 AUDIO
    TITLE "3:cjc093_2093"
    INDEX 01 01:07:17
  TRACK 55 AUDIO
    TITLE "0:"
    INDEX 01 01:09:26
  TRACK 56 AUDIO
    TITLE "4:cjc093_2094"
    INDEX 01 01:09:59
  TRACK 57 AUDIO
    TITLE "0:"
    INDEX 01 01:13:00
  TRACK 58 AUDIO
    TITLE "3:cjc093_2095"
    INDEX 01 01:14:08
  TRACK 59 AUDIO
    TITLE "0:"
    INDEX 01 01:16:48
  TRACK 60 AUDIO
    TITLE "4:cjc093_2096"
    INDEX 01 01:17:00
  TRACK 61 AUDIO
    TITLE "0:"
    INDEX 01 01:19:52
  TRACK 62 AUDIO
    TITLE "2:cjc093_2097"
    INDEX 01 01:20:67
  TRACK 63 AUDIO
    TITLE "0:"
    INDEX 01 01:21:70
  TRACK 64 AUDIO
    TITLE "3:cjc093_2098"
    INDEX 01 01:22:27
  TRACK 65 AUDIO
    TITLE "0:"
    INDEX 01 01:24:63
  TRACK 66 AUDIO
    TITLE "4:cjc093_2099"
    INDEX 01 01:25:31
  TRACK 67 AUDIO
    TITLE "0:"
    INDEX 01 01:28:53
  TRACK 68 AUDIO
    TITLE "3:cjc093_2100"
    INDEX 01 01:29:64
  TRACK 69 AUDIO
    TITLE "0:"
    INDEX 01 01:31:28
  TRACK 70 AUDIO
    TITLE "4:cjc093_2101"
    INDEX 01 01:32:04
  TRACK 71 AUDIO
    TITLE "0:"
    INDEX 01 01:35:57
